#!OML:ASF G:\JayActor3\Patient Classification 1\Patient 1\Session 5\male.ASF
:FULLY-SPECIFIED
:DEGREES
1063
root -19.3913 16.9737 -4.48674 -426.851 84.3537 -426.256
lowerback 0.878088 -0.366606 3.91177
upperback 1.42986 -0.469181 -0.192214
thorax 0.94238 -0.190183 -2.3896
lowerneck -7.70669 0.110819 2.37957
upperneck 14.6677 -0.304608 1.83844
head 5.70054 0.176028 0.169514
rclavicle -5.24295e-015 -3.97569e-015
rhumerus -32.7567 -1.56657 -89.4451
rradius 32.0534
rwrist -0.928077
rhand -18.5654 -7.76271
rfingers 7.12502
rthumb 7.72467 -37.6016
lclavicle -5.24295e-015 -3.97569e-015
lhumerus -30.5669 2.3251 84.0926
lradius 29.8795
lwrist 19.163
lhand -17.9821 13.8766
lfingers 7.12502
lthumb 8.28757 43.694
rfemur 9.10072 2.89719 31.7846
rtibia 18.7078
rfoot -21.7067 -9.39872
rtoes 6.06685
lfemur -21.2606 9.38451 -16.9239
ltibia 20.1481
lfoot 7.73087 -6.0761
ltoes 12.2576
1064
root -19.4879 16.9736 -4.47188 -428.865 84.3701 -428.28
lowerback 0.920012 -0.385023 3.98375
upperback 1.45187 -0.491757 -0.175942
thorax 0.939577 -0.200344 -2.41301
lowerneck -7.72406 0.084881 2.36004
upperneck 14.6651 -0.338615 1.84297
head 5.70264 0.158733 0.171725
rclavicle -1.98785e-016 -4.77083e-015
rhumerus -32.7658 -1.57167 -89.4104
rradius 32.033
rwrist -0.909161
rhand -18.4993 -7.78678
rfingers 7.12502
rthumb 7.78844 -37.6233
lclavicle -1.98785e-016 -4.77083e-015
lhumerus -30.476 2.35116 84.0797
lradius 29.7832
lwrist 19.0961
lhand -18.019 13.9044
lfingers 7.12502
lthumb 8.252 43.7232
rfemur 8.74397 2.64648 31.8493
rtibia 18.6793
rfoot -21.7584 -9.27384
rtoes 6.4533
lfemur -21.6879 9.49927 -16.8434
ltibia 20.1291
lfoot 8.36943 -6.15381
ltoes 11.5402
1065
root -19.5843 16.9734 -4.45734 -430.856 84.3734 -430.281
lowerback 0.968122 -0.400765 4.05658
upperback 1.47115 -0.510369 -0.155226
thorax 0.930773 -0.208685 -2.43226
lowerneck -7.74683 0.0598215 2.34261
upperneck 14.6693 -0.371313 1.8431
head 5.70778 0.142037 0.172318
rclavicle 1.46604e-015 3.18055e-015
rhumerus -32.7765 -1.58323 -89.3633
rradius 32.0037
rwrist -0.858963
rhand -18.3975 -7.81221
rfingers 7.12502
rthumb 7.88671 -37.6451
lclavicle 1.46604e-015 3.18055e-015
lhumerus -30.3932 2.39175 84.0682
lradius 29.6889
lwrist 19.0242
lhand -18.0559 13.9321
lfingers 7.12502
lthumb 8.21641 43.7524
rfemur 8.3565 2.39871 31.9239
rtibia 18.697
rfoot -21.8009 -9.18884
rtoes 6.76425
lfemur -22.1093 9.59879 -16.7493
ltibia 20.1185
lfoot 8.81484 -6.25211
ltoes 10.2816
1066
root -19.6804 16.9728 -4.44311 -432.801 84.3648 -432.233
lowerback 1.02429 -0.413416 4.12726
upperback 1.48895 -0.524367 -0.129932
thorax 0.916296 -0.214884 -2.44552
lowerneck -7.77048 0.0366697 2.32612
upperneck 14.6729 -0.401209 1.84073
head 5.71288 0.126552 0.172163
rclavicle -1.25731e-014 -1.11319e-014
rhumerus -32.7927 -1.59746 -89.3051
rradius 31.9709
rwrist -0.784245
rhand -18.2781 -7.84219
rfingers 7.12502
rthumb 8.00189 -37.6707
lclavicle -1.25731e-014 -1.11319e-014
lhumerus -30.3275 2.43625 84.0613
lradius 29.6101
lwrist 18.9552
lhand -18.0981 13.9719
lfingers 7.12502
lthumb 8.17569 43.7938
rfemur 7.94423 2.15784 32.0102
rtibia 18.7594
rfoot -21.8347 -9.15469
rtoes 6.97044
lfemur -22.5191 9.68803 -16.6441
ltibia 20.1203
lfoot 9.03665 -6.3827
ltoes 8.37049
1067
root -19.7761 16.9714 -4.42924 -434.712 84.3412 -434.145
lowerback 1.09577 -0.425339 4.1991
upperback 1.50418 -0.536478 -0.0976819
thorax 0.89076 -0.22041 -2.45213
lowerneck -7.79488 0.0153013 2.30791
upperneck 14.6772 -0.427815 1.83371
head 5.71831 0.112232 0.17106
rclavicle 1.73937e-016 7.95139e-015
rhumerus -32.8127 -1.60968 -89.2363
rradius 31.932
rwrist -0.689032
rhand -18.1554 -7.87118
rfingers 7.12502
rthumb 8.12031 -37.6952
lclavicle 1.73937e-016 7.95139e-015
lhumerus -30.2829 2.4927 84.0576
lradius 29.5519
lwrist 18.8801
lhand -18.1464 14.0125
lfingers 7.12502
lthumb 8.12901 43.8361
rfemur 7.51261 1.93011 32.1139
rtibia 18.8637
rfoot -21.874 -9.15911
rtoes 7.14944
lfemur -22.9161 9.76833 -16.5249
ltibia 20.1423
lfoot 9.01726 -6.57712
ltoes 5.67806
